# xmcd CD database file
#
# Track frame offsets:
#	150
#	14752
#	28172
#	41809
#	55906
#	71022
#	86362
#	99531
#	112168
#	124589
#	136518
#	151588
#	165361
#	179013
#	190185
#	206577
#	240537
#	254566
#	283961
#
# Disc length: 4038 seconds
#
# Revision: 0
# Processed by: cddbd v1.5.2PL0 Copyright (c) Steve Scherf et al.
# Submitted via: CDex 1.51
#
DISCID=0f0fc413
DTITLE=Duke Ellington - Reader's Digest - CD2 - Duke et ses amis
DYEAR=1900
DGENRE=Jazz
TTITLE0=Blue Again
TTITLE1=Moon over Dixie
TTITLE2=I'm Satisfied
TTITLE3=Isn't Love the Strangest Thing
TTITLE4=You, You Darlin'
TTITLE5=Flamingo
TTITLE6=A Slip of the Lip (Can Sink a Ship)
TTITLE7=Come to Baby, Do!
TTITLE8=Pretty Woman
TTITLE9=St. Louis Blues
TTITLE10=On a Turquoise Cloud
TTITLE11=Take Love Easy
TTITLE12=Love You Madly
TTITLE13=Me and You
TTITLE14=A Drum is a Woman
TTITLE15=Hello Little Girl
TTITLE16=The Beautiful American
TTITLE17=Backward Country Boy Blues
TTITLE18=Duke's Place
EXTD=
EXTT0=
EXTT1=
EXTT2=
EXTT3=
EXTT4=
EXTT5=
EXTT6=
EXTT7=
EXTT8=
EXTT9=
EXTT10=
EXTT11=
EXTT12=
EXTT13=
EXTT14=
EXTT15=
EXTT16=
EXTT17=
EXTT18=
PLAYORDER=
